# This file uses centimeters as units for non-parametric coordinates.

mtllib APPLE.mtl
g default
v 0.013262 -1.145629 -0.216485
v -0.093494 -1.162637 -0.350281
v -0.225453 -1.162637 -0.350281
v -0.332209 -1.139959 -0.216485
v -0.393454 -1.125305 0.000000
v -0.332209 -1.139959 0.216485
v -0.225453 -1.162637 0.350281
v -0.093494 -1.162637 0.350281
v 0.013262 -1.145629 0.216485
v 0.038132 -1.125305 0.000000
v 0.340606 -1.034733 -0.411780
v 0.037100 -1.034733 -0.666274
v -0.338054 -1.034733 -0.666274
v -0.641560 -1.034733 -0.411780
v -0.710381 -1.034733 0.000000
v -0.680726 -1.125672 0.365540
v -0.175796 -1.125672 0.620034
v 0.037100 -1.034733 0.666274
v 0.340606 -1.034733 0.411780
v 0.338409 -1.034733 0.000000
v 0.525440 -0.770507 -0.566766
v 0.107700 -0.770507 -0.917047
v -0.408655 -0.770507 -0.917047
v -0.826395 -0.770507 -0.566766
v -0.949949 -0.770507 0.000000
v -0.826395 -0.770507 0.566766
v -0.207231 -0.770507 0.917047
v 0.107700 -0.770507 0.917047
v 0.525440 -0.770507 0.566766
v 0.600177 -0.770507 0.000000
v 0.644111 -0.400378 -0.666274
v 0.153029 -0.400378 -1.078054
v -0.453983 -0.400378 -1.078053
v -0.945066 -0.400378 -0.666274
v -1.124384 -0.400378 0.000000
v -0.945066 -0.400378 0.666274
v -0.252559 -0.400378 1.078053
v 0.153029 -0.400378 1.078053
v 0.644111 -0.400378 0.666274
v 0.813462 -0.400378 0.000000
v 0.685003 0.134924 -0.700562
v 0.168648 0.134924 -1.133533
v -0.469602 -0.021497 -1.133532
v -0.985957 -0.021497 -0.700561
v -1.180479 -0.021497 0.000000
v -0.985957 -0.021497 0.700562
v -0.268178 -0.021497 1.133532
v 0.168648 -0.021497 1.133532
v 0.685003 -0.021497 0.700561
v 0.902856 -0.021497 0.000000
v 0.644111 0.465437 -0.666274
v 0.153029 0.465437 -1.078054
v -0.453983 0.309017 -1.078053
v -0.945066 0.309017 -0.666274
v -1.146584 0.309017 0.000000
v -0.945066 0.309017 0.666274
v -0.252559 0.309017 1.078053
v 0.153029 0.309017 1.078053
v 0.644111 0.309017 0.666274
v 0.868962 0.309017 0.000000
v 0.525440 0.744206 -0.566766
v 0.107700 0.744206 -0.917047
v -0.408655 0.587785 -0.917047
v -0.826395 0.587785 -0.566766
v -1.038749 0.587785 0.000000
v -0.826395 0.587785 0.566766
v -0.207231 0.587785 0.917047
v 0.107700 0.587785 0.917047
v 0.525440 0.587785 0.566766
v 0.772226 0.587785 0.000000
v 0.340606 0.965437 -0.411780
v 0.037100 0.965437 -0.666274
v -0.338054 0.809017 -0.666274
v -0.641560 0.809017 -0.411780
v -0.849130 0.809017 0.000000
v -0.645706 0.829487 0.370501
v -0.140776 0.829487 0.624994
v 0.037100 0.809017 0.666274
v 0.340606 0.809017 0.411780
v 0.532658 0.809017 0.000000
v 0.050738 0.877522 -0.172718
v -0.076565 0.856083 -0.279463
v -0.233920 0.903248 -0.279463
v -0.248254 0.928973 -0.172717
v -0.195644 0.840273 0.000000
v -0.243188 0.928973 0.172718
v -0.233920 0.903248 0.279463
v -0.076565 0.856083 0.279463
v 0.050738 0.877522 0.172717
v -0.149118 0.780246 -0.000000
v 0.206767 0.931304 -0.299555
v -0.014022 0.915863 -0.550723
v -0.286933 0.890639 -0.550723
v -0.507722 0.909169 -0.299555
v -0.696454 0.938326 0.000000
v -0.507722 0.909169 0.299555
v -0.286932 0.890639 0.549761
v -0.014022 0.856669 0.549761
v 0.206767 0.872110 0.299555
v 0.344400 0.888232 0.000000
v -0.641560 -1.034733 0.539604
v -0.469674 -0.994276 0.630535
v -0.540274 -0.730051 0.881309
v -0.826395 -0.770507 0.694591
v -0.585603 -0.359922 1.042315
v -0.945066 -0.400378 0.794098
v -0.601222 0.018960 1.097794
v -0.985957 -0.021497 0.828386
v -0.585603 0.349473 1.042315
v -0.945066 0.309017 0.794098
v -0.540274 0.628242 0.881309
v -0.826395 0.587785 0.694591
v -0.503257 0.753592 0.685624
v -0.675143 0.713135 0.594693
vt 0.000000 0.100000
vt 0.100000 0.100000
vt 0.200000 0.100000
vt 0.300000 0.100000
vt 0.400000 0.100000
vt 0.500000 0.100000
vt 0.600000 0.100000
vt 0.700000 0.100000
vt 0.800000 0.100000
vt 0.900000 0.100000
vt 1.000000 0.100000
vt 0.000000 0.200000
vt 0.100000 0.200000
vt 0.200000 0.200000
vt 0.300000 0.200000
vt 0.400000 0.200000
vt 0.500000 0.200000
vt 0.600000 0.200000
vt 0.700000 0.200000
vt 0.800000 0.200000
vt 0.900000 0.200000
vt 1.000000 0.200000
vt 0.000000 0.300000
vt 0.100000 0.300000
vt 0.200000 0.300000
vt 0.300000 0.300000
vt 0.400000 0.300000
vt 0.500000 0.300000
vt 0.600000 0.300000
vt 0.700000 0.300000
vt 0.800000 0.300000
vt 0.900000 0.300000
vt 1.000000 0.300000
vt 0.000000 0.400000
vt 0.100000 0.400000
vt 0.200000 0.400000
vt 0.300000 0.400000
vt 0.400000 0.400000
vt 0.500000 0.400000
vt 0.600000 0.400000
vt 0.700000 0.400000
vt 0.800000 0.400000
vt 0.900000 0.400000
vt 1.000000 0.400000
vt 0.000000 0.500000
vt 0.100000 0.500000
vt 0.200000 0.500000
vt 0.300000 0.500000
vt 0.400000 0.500000
vt 0.500000 0.500000
vt 0.600000 0.500000
vt 0.700000 0.500000
vt 0.800000 0.500000
vt 0.900000 0.500000
vt 1.000000 0.500000
vt 0.000000 0.600000
vt 0.100000 0.600000
vt 0.200000 0.600000
vt 0.300000 0.600000
vt 0.400000 0.600000
vt 0.500000 0.600000
vt 0.600000 0.600000
vt 0.700000 0.600000
vt 0.800000 0.600000
vt 0.900000 0.600000
vt 1.000000 0.600000
vt 0.000000 0.700000
vt 0.100000 0.700000
vt 0.200000 0.700000
vt 0.300000 0.700000
vt 0.400000 0.700000
vt 0.500000 0.700000
vt 0.600000 0.700000
vt 0.700000 0.700000
vt 0.800000 0.700000
vt 0.900000 0.700000
vt 1.000000 0.700000
vt 0.000000 0.800000
vt 0.100000 0.800000
vt 0.200000 0.800000
vt 0.300000 0.800000
vt 0.400000 0.800000
vt 0.500000 0.800000
vt 0.600000 0.800000
vt 0.700000 0.800000
vt 0.800000 0.800000
vt 0.900000 0.800000
vt 1.000000 0.800000
vt 0.000000 0.900000
vt 0.100000 0.900000
vt 0.200000 0.900000
vt 0.300000 0.900000
vt 0.400000 0.900000
vt 0.500000 0.900000
vt 0.600000 0.900000
vt 0.700000 0.900000
vt 0.800000 0.900000
vt 0.900000 0.900000
vt 1.000000 0.900000
vt 1.000000 0.857465
vt 0.000000 0.857465
vt 0.100000 0.857465
vt 0.200000 0.857465
vt 0.300000 0.857465
vt 0.400000 0.857465
vt 0.500000 0.857465
vt 0.600000 0.857465
vt 0.700000 0.857465
vt 0.800000 0.857465
vt 0.900000 0.857465
vt 0.500000 0.200000
vt 0.600000 0.200000
vt 0.600000 0.300000
vt 0.500000 0.300000
vt 0.600000 0.400000
vt 0.500000 0.400000
vt 0.600000 0.500000
vt 0.500000 0.500000
vt 0.600000 0.600000
vt 0.500000 0.600000
vt 0.600000 0.700000
vt 0.500000 0.700000
vt 0.600000 0.800000
vt 0.500000 0.800000
vn 0.246975 -0.943809 -0.219608
vn 0.246975 -0.943809 -0.219608
vn 0.246975 -0.943809 -0.219608
vn 0.246975 -0.943809 -0.219608
vn -0.000000 -0.926944 -0.375199
vn -0.000000 -0.926944 -0.375199
vn -0.000000 -0.926944 -0.375199
vn -0.000000 -0.926944 -0.375199
vn -0.257381 -0.941641 -0.216949
vn -0.257381 -0.941641 -0.216949
vn -0.257381 -0.941641 -0.216949
vn -0.257381 -0.941641 -0.216949
vn -0.287599 -0.957028 -0.037217
vn -0.287599 -0.957028 -0.037217
vn -0.287599 -0.957028 -0.037217
vn -0.287599 -0.957028 -0.037217
vn -0.186049 -0.971453 -0.147188
vn -0.186049 -0.971453 -0.147188
vn -0.186049 -0.971453 -0.147188
vn -0.186049 -0.971453 -0.147188
vn -0.078566 -0.994744 0.065670
vn -0.078566 -0.994744 0.065670
vn -0.078566 -0.994744 0.065670
vn -0.078566 -0.994744 0.065670
vn 0.224800 -0.953807 0.199291
vn 0.224800 -0.953807 0.199291
vn 0.224800 -0.953807 0.199291
vn 0.224800 -0.953807 0.199291
vn 0.246975 -0.943809 0.219609
vn 0.246975 -0.943809 0.219609
vn 0.246975 -0.943809 0.219609
vn 0.246975 -0.943809 0.219609
vn 0.311083 -0.950182 -0.019510
vn 0.311083 -0.950182 -0.019510
vn 0.311083 -0.950182 -0.019510
vn 0.311083 -0.950182 -0.019510
vn 0.311083 -0.950182 0.019510
vn 0.311083 -0.950182 0.019510
vn 0.311083 -0.950182 0.019510
vn 0.311083 -0.950182 0.019510
vn 0.477837 -0.668527 -0.569862
vn 0.477837 -0.668527 -0.569862
vn 0.477837 -0.668527 -0.569862
vn 0.477837 -0.668527 -0.569862
vn -0.000000 -0.688402 -0.725329
vn -0.000000 -0.688402 -0.725329
vn -0.000000 -0.688402 -0.725329
vn -0.000000 -0.688402 -0.725329
vn -0.477837 -0.668527 -0.569862
vn -0.477837 -0.668527 -0.569862
vn -0.477837 -0.668527 -0.569862
vn -0.477837 -0.668527 -0.569862
vn -0.749623 -0.645250 -0.147370
vn -0.749623 -0.645250 -0.147370
vn -0.749623 -0.645250 -0.147370
vn -0.749623 -0.645250 -0.147370
vn -0.833737 -0.545770 0.083775
vn -0.833737 -0.545769 0.083775
vn -0.833737 -0.545770 0.083775
vn -0.833737 -0.545770 0.083775
vn -0.296139 -0.667623 0.683068
vn -0.296139 -0.667623 0.683068
vn -0.296139 -0.667623 0.683068
vn -0.296139 -0.667623 0.683068
vn 0.048892 -0.663423 0.746645
vn 0.048892 -0.663423 0.746645
vn 0.048892 -0.663423 0.746646
vn 0.048892 -0.663423 0.746645
vn 0.477837 -0.668527 0.569862
vn 0.477837 -0.668527 0.569862
vn 0.477837 -0.668527 0.569862
vn 0.477837 -0.668527 0.569862
vn 0.754435 -0.653988 0.055926
vn 0.754435 -0.653988 0.055926
vn 0.754435 -0.653988 0.055926
vn 0.754435 -0.653988 0.055926
vn 0.754435 -0.653988 -0.055926
vn 0.754435 -0.653988 -0.055926
vn 0.754435 -0.653988 -0.055926
vn 0.754435 -0.653988 -0.055926
vn 0.594076 -0.380947 -0.708487
vn 0.594076 -0.380947 -0.708487
vn 0.594076 -0.380947 -0.708487
vn 0.594076 -0.380947 -0.708487
vn -0.000000 -0.398894 -0.916997
vn -0.000000 -0.398894 -0.916997
vn -0.000000 -0.398894 -0.916997
vn -0.000000 -0.398894 -0.916997
vn -0.594076 -0.380946 -0.708487
vn -0.594076 -0.380946 -0.708487
vn -0.594076 -0.380946 -0.708487
vn -0.594076 -0.380946 -0.708487
vn -0.896455 -0.384553 -0.220197
vn -0.896455 -0.384553 -0.220197
vn -0.896455 -0.384553 -0.220197
vn -0.896455 -0.384553 -0.220197
vn -0.896455 -0.384553 0.220197
vn -0.896455 -0.384553 0.220197
vn -0.896455 -0.384553 0.220197
vn -0.896455 -0.384553 0.220197
vn -0.482331 -0.383948 0.787363
vn -0.482331 -0.383948 0.787363
vn -0.482331 -0.383948 0.787363
vn -0.482331 -0.383948 0.787363
vn 0.000000 -0.398894 0.916997
vn 0.000000 -0.398894 0.916997
vn 0.000000 -0.398894 0.916997
vn 0.000000 -0.398894 0.916997
vn 0.594076 -0.380946 0.708487
vn 0.594076 -0.380946 0.708487
vn 0.594076 -0.380946 0.708487
vn 0.594076 -0.380946 0.708487
vn 0.889160 -0.422389 0.176014
vn 0.889161 -0.422389 0.176014
vn 0.889160 -0.422389 0.176014
vn 0.889161 -0.422389 0.176014
vn 0.889160 -0.422389 -0.176014
vn 0.889160 -0.422389 -0.176014
vn 0.889160 -0.422389 -0.176014
vn 0.889160 -0.422389 -0.176014
vn 0.639451 -0.097694 -0.762600
vn 0.639451 -0.097694 -0.762600
vn 0.639451 -0.097694 -0.762600
vn 0.639451 -0.097694 -0.762600
vn 0.015133 -0.120476 -0.992601
vn 0.015133 -0.120476 -0.992601
vn 0.015133 -0.120476 -0.992601
vn 0.015133 -0.120476 -0.992601
vn -0.636433 -0.137376 -0.759000
vn -0.636433 -0.137376 -0.759000
vn -0.636433 -0.137376 -0.759000
vn -0.636433 -0.137376 -0.759000
vn -0.955851 -0.134168 -0.261433
vn -0.955851 -0.134168 -0.261433
vn -0.955851 -0.134168 -0.261433
vn -0.955851 -0.134168 -0.261433
vn -0.955851 -0.134168 0.261433
vn -0.955851 -0.134168 0.261433
vn -0.955851 -0.134168 0.261433
vn -0.955851 -0.134168 0.261433
vn -0.555302 -0.138555 0.820026
vn -0.555302 -0.138555 0.820026
vn -0.555302 -0.138555 0.820026
vn -0.555302 -0.138555 0.820026
vn 0.000000 -0.144883 0.989449
vn 0.000000 -0.144883 0.989449
vn 0.000000 -0.144883 0.989449
vn 0.000000 -0.144883 0.989449
vn 0.636433 -0.137375 0.759000
vn 0.636433 -0.137375 0.759000
vn 0.636433 -0.137375 0.759000
vn 0.636433 -0.137375 0.759000
vn 0.947289 -0.175014 0.268353
vn 0.947289 -0.175014 0.268353
vn 0.947289 -0.175014 0.268353
vn 0.947289 -0.175014 0.268353
vn 0.947373 -0.145707 -0.285051
vn 0.947373 -0.145707 -0.285051
vn 0.947373 -0.145707 -0.285051
vn 0.947373 -0.145707 -0.285051
vn 0.634554 0.157015 -0.756761
vn 0.634554 0.157015 -0.756761
vn 0.634554 0.157015 -0.756761
vn 0.634554 0.157015 -0.756761
vn -0.041552 0.165398 -0.985351
vn -0.041552 0.165398 -0.985351
vn -0.041552 0.165398 -0.985351
vn -0.041552 0.165398 -0.985351
vn -0.634555 0.157015 -0.756761
vn -0.634555 0.157015 -0.756761
vn -0.634555 0.157015 -0.756761
vn -0.634555 0.157015 -0.756761
vn -0.953297 0.122180 -0.276218
vn -0.953297 0.122180 -0.276218
vn -0.953297 0.122180 -0.276218
vn -0.953297 0.122180 -0.276218
vn -0.953297 0.122180 0.276218
vn -0.953297 0.122180 0.276218
vn -0.953297 0.122180 0.276218
vn -0.953297 0.122180 0.276218
vn -0.575351 0.158160 0.802469
vn -0.575351 0.158160 0.802469
vn -0.575351 0.158160 0.802469
vn -0.575351 0.158160 0.802469
vn 0.000000 0.165541 0.986203
vn 0.000000 0.165541 0.986203
vn 0.000000 0.165541 0.986203
vn 0.000000 0.165541 0.986203
vn 0.634555 0.157014 0.756761
vn 0.634555 0.157014 0.756761
vn 0.634555 0.157014 0.756761
vn 0.634555 0.157014 0.756761
vn 0.944158 0.122680 0.305803
vn 0.944158 0.122680 0.305803
vn 0.944158 0.122680 0.305803
vn 0.944158 0.122680 0.305803
vn 0.952070 0.122257 -0.280384
vn 0.952070 0.122257 -0.280384
vn 0.952071 0.122257 -0.280384
vn 0.952070 0.122257 -0.280384
vn 0.563692 0.479926 -0.672252
vn 0.563692 0.479926 -0.672252
vn 0.563692 0.479926 -0.672252
vn 0.563692 0.479926 -0.672252
vn -0.137950 0.495357 -0.857666
vn -0.137950 0.495357 -0.857666
vn -0.137950 0.495357 -0.857666
vn -0.137950 0.495357 -0.857666
vn -0.563692 0.479926 -0.672252
vn -0.563692 0.479926 -0.672252
vn -0.563692 0.479926 -0.672252
vn -0.563692 0.479926 -0.672252
vn -0.867118 0.404224 -0.291050
vn -0.867118 0.404224 -0.291050
vn -0.867118 0.404224 -0.291050
vn -0.867118 0.404224 -0.291050
vn -0.867118 0.404224 0.291050
vn -0.867117 0.404224 0.291050
vn -0.867118 0.404224 0.291050
vn -0.867118 0.404224 0.291050
vn -0.530319 0.481912 0.697512
vn -0.530319 0.481912 0.697512
vn -0.530319 0.481912 0.697512
vn -0.530319 0.481912 0.697512
vn 0.000000 0.500138 0.865946
vn 0.000000 0.500138 0.865946
vn 0.000000 0.500138 0.865946
vn 0.000000 0.500138 0.865946
vn 0.563692 0.479926 0.672252
vn 0.563692 0.479926 0.672252
vn 0.563692 0.479926 0.672252
vn 0.563692 0.479926 0.672252
vn 0.859712 0.390845 0.328839
vn 0.859712 0.390845 0.328839
vn 0.859712 0.390845 0.328839
vn 0.859712 0.390845 0.328839
vn 0.889732 0.386969 -0.242141
vn 0.889732 0.386969 -0.242141
vn 0.889732 0.386969 -0.242141
vn 0.889732 0.386969 -0.242141
vn 0.437924 0.731754 -0.522262
vn 0.437924 0.731754 -0.522262
vn 0.437924 0.731754 -0.522262
vn 0.437924 0.731754 -0.522262
vn -0.254484 0.725207 -0.639776
vn -0.254483 0.725207 -0.639776
vn -0.254484 0.725207 -0.639776
vn -0.254484 0.725207 -0.639776
vn -0.437924 0.731754 -0.522262
vn -0.437924 0.731754 -0.522263
vn -0.437924 0.731754 -0.522262
vn -0.437924 0.731754 -0.522262
vn -0.677693 0.675394 -0.290819
vn -0.677693 0.675394 -0.290819
vn -0.677693 0.675394 -0.290819
vn -0.677693 0.675394 -0.290819
vn -0.684135 0.669715 0.288861
vn -0.684135 0.669715 0.288861
vn -0.684135 0.669715 0.288861
vn -0.684135 0.669715 0.288861
vn -0.402917 0.808440 0.429049
vn -0.402917 0.808440 0.429049
vn -0.402917 0.808440 0.429050
vn -0.402917 0.808440 0.429050
vn -0.022754 0.760596 0.648827
vn -0.022754 0.760596 0.648827
vn -0.022754 0.760596 0.648827
vn -0.022754 0.760596 0.648827
vn 0.437924 0.731754 0.522262
vn 0.437924 0.731754 0.522262
vn 0.437924 0.731754 0.522262
vn 0.437924 0.731754 0.522262
vn 0.639246 0.713570 0.286676
vn 0.639246 0.713570 0.286676
vn 0.639246 0.713570 0.286676
vn 0.639246 0.713570 0.286676
vn 0.702905 0.705613 -0.089640
vn 0.702905 0.705613 -0.089640
vn 0.702905 0.705613 -0.089640
vn 0.702905 0.705613 -0.089640
vn -0.223948 0.960589 0.164667
vn -0.221267 0.960653 0.167889
vn -0.244858 0.959504 0.139271
vn -0.244858 0.959504 0.139271
vn -0.114637 0.993073 -0.025775
vn -0.110183 0.993652 -0.022699
vn 0.050733 0.994881 0.087394
vn 0.050733 0.994881 0.087394
vn -0.238614 0.919541 -0.312263
vn -0.216717 0.930337 -0.295815
vn 0.029118 0.994172 -0.103800
vn 0.029118 0.994172 -0.103800
vn -0.188179 0.980574 -0.055351
vn -0.318474 0.934605 -0.158390
vn 0.077051 0.986198 0.146547
vn 0.077051 0.986198 0.146547
vn -0.293738 0.946371 0.134536
vn -0.145260 0.989209 0.019090
vn 0.076431 0.986152 -0.147182
vn 0.076431 0.986152 -0.147182
vn -0.242571 0.867534 0.434217
vn -0.299160 0.813374 0.498925
vn 0.029164 0.994102 0.104454
vn 0.029164 0.994102 0.104454
vn 0.173619 0.982513 0.067261
vn 0.145786 0.973491 0.176245
vn 0.185272 0.982511 0.018585
vn 0.185272 0.982512 0.018585
vn 0.130753 0.972515 0.192660
vn 0.105088 0.979289 0.173057
vn -0.059592 0.997212 0.044917
vn -0.059592 0.997212 0.044917
vn 0.129439 0.991260 0.025499
vn 0.180061 0.981727 0.061557
vn -0.125149 0.980428 -0.151983
vn -0.125149 0.980428 -0.151983
vn 0.050659 0.975741 0.212986
vn 0.013366 0.975217 0.220845
vn -0.185922 0.948275 0.257307
vn -0.185922 0.948275 0.257307
vn -0.206829 0.960706 0.185113
vn -0.206829 0.960706 0.185113
vn -0.267511 0.954422 -0.132352
vn -0.267511 0.954422 -0.132352
vn -0.349985 0.849856 -0.394024
vn -0.349985 0.849856 -0.394024
vn -0.513342 0.796829 -0.318657
vn -0.513342 0.796829 -0.318657
vn -0.505338 0.806763 0.306213
vn -0.505338 0.806763 0.306213
vn -0.428272 0.638682 0.639271
vn -0.428272 0.638682 0.639271
vn 0.068078 0.896163 0.438472
vn 0.068078 0.896163 0.438472
vn 0.229751 0.935822 0.267303
vn 0.229751 0.935822 0.267303
vn 0.344225 0.921389 0.180423
vn 0.344225 0.921389 0.180423
vn 0.197244 0.963892 0.178903
vn 0.197244 0.963892 0.178903
vn -0.007296 -0.999973 0.000000
vn -0.007296 -0.999973 0.000000
vn -0.007983 -0.995864 -0.090506
vn -0.007922 -0.995947 -0.089593
vn -0.007922 -0.995947 0.089593
vn -0.007983 -0.995864 0.090506
vn -0.011746 -0.989112 -0.146697
vn -0.011746 -0.989112 -0.146697
vn -0.011746 -0.989112 0.146698
vn -0.011746 -0.989112 0.146698
vn 0.309109 0.951026 0.001515
vn 0.309100 0.951022 0.003742
vn 0.260395 0.950119 -0.171662
vn 0.263971 0.931739 -0.249362
vn 0.260751 0.932748 0.248979
vn 0.257425 0.950158 0.175877
vn 0.202500 0.926666 0.316676
vn 0.202500 0.926666 0.316676
vn 0.200721 0.928835 -0.311410
vn 0.200720 0.928835 -0.311410
vn -0.251521 -0.772347 0.583281
vn -0.251521 -0.772347 0.583281
vn -0.251521 -0.772347 0.583281
vn -0.251521 -0.772347 0.583281
vn -0.211552 -0.666812 0.714568
vn -0.211552 -0.666812 0.714568
vn -0.211552 -0.666812 0.714568
vn -0.211552 -0.666812 0.714568
vn -0.775072 -0.570183 0.272313
vn -0.775072 -0.570183 0.272313
vn -0.775072 -0.570183 0.272313
vn -0.775072 -0.570183 0.272313
vn -0.146383 -0.409617 0.900437
vn -0.146383 -0.409617 0.900436
vn -0.146383 -0.409617 0.900437
vn -0.146383 -0.409617 0.900436
vn -0.952252 -0.305312 0.000000
vn -0.952252 -0.305312 0.000000
vn -0.952252 -0.305312 0.000000
vn -0.952252 -0.305312 0.000000
vn -0.123356 -0.148754 0.981150
vn -0.123356 -0.148754 0.981150
vn -0.123356 -0.148754 0.981150
vn -0.123356 -0.148754 0.981150
vn -0.994226 -0.107303 0.000000
vn -0.994226 -0.107303 0.000000
vn -0.994226 -0.107303 0.000000
vn -0.994226 -0.107303 0.000000
vn -0.084864 0.168843 0.981983
vn -0.084864 0.168843 0.981983
vn -0.084864 0.168843 0.981983
vn -0.084864 0.168843 0.981983
vn -0.992433 0.122784 0.000000
vn -0.992433 0.122784 0.000000
vn -0.992433 0.122784 0.000000
vn -0.992433 0.122784 0.000000
vn -0.031449 0.503721 0.863294
vn -0.031449 0.503721 0.863294
vn -0.031449 0.503721 0.863294
vn -0.031449 0.503721 0.863294
vn -0.920099 0.391685 0.000000
vn -0.920099 0.391685 0.000000
vn -0.920099 0.391685 0.000000
vn -0.920099 0.391685 0.000000
vn -0.019384 0.800838 0.598567
vn -0.019384 0.800838 0.598567
vn -0.019384 0.800838 0.598567
vn -0.019384 0.800838 0.598567
vn -0.218839 0.921498 0.320861
vn -0.218839 0.921498 0.320861
vn -0.218839 0.921498 0.320861
vn -0.218839 0.921498 0.320861
vn -0.647039 0.738415 0.189958
vn -0.647039 0.738415 0.189958
vn -0.647039 0.738415 0.189958
vn -0.647039 0.738415 0.189958
s off
g pSphere1
usemtl initialShadingGroup
f 1/1/1 2/2/2 12/13/3 11/12/4
f 2/2/5 3/3/6 13/14/7 12/13/8
f 3/3/9 4/4/10 14/15/11 13/14/12
f 4/4/13 5/5/14 15/16/15 14/15/16
f 5/5/17 6/6/18 16/17/19 15/16/20
f 6/6/21 7/7/22 17/18/23 16/17/24
f 7/7/25 8/8/26 18/19/27 17/18/28
f 8/8/29 9/9/30 19/20/31 18/19/32
f 9/9/33 10/10/34 20/21/35 19/20/36
f 10/10/37 1/11/38 11/22/39 20/21/40
f 11/12/41 12/13/42 22/24/43 21/23/44
f 12/13/45 13/14/46 23/25/47 22/24/48
f 13/14/49 14/15/50 24/26/51 23/25/52
f 14/15/53 15/16/54 25/27/55 24/26/56
f 15/16/57 16/17/58 26/28/59 25/27/60
f 101/111/61 102/112/62 103/113/63 104/114/64
f 17/18/65 18/19/66 28/30/67 27/29/68
f 18/19/69 19/20/70 29/31/71 28/30/72
f 19/20/73 20/21/74 30/32/75 29/31/76
f 20/21/77 11/22/78 21/33/79 30/32/80
f 21/23/81 22/24/82 32/35/83 31/34/84
f 22/24/85 23/25/86 33/36/87 32/35/88
f 23/25/89 24/26/90 34/37/91 33/36/92
f 24/26/93 25/27/94 35/38/95 34/37/96
f 25/27/97 26/28/98 36/39/99 35/38/100
f 104/114/101 103/113/102 105/115/103 106/116/104
f 27/29/105 28/30/106 38/41/107 37/40/108
f 28/30/109 29/31/110 39/42/111 38/41/112
f 29/31/113 30/32/114 40/43/115 39/42/116
f 30/32/117 21/33/118 31/44/119 40/43/120
f 31/34/121 32/35/122 42/46/123 41/45/124
f 32/35/125 33/36/126 43/47/127 42/46/128
f 33/36/129 34/37/130 44/48/131 43/47/132
f 34/37/133 35/38/134 45/49/135 44/48/136
f 35/38/137 36/39/138 46/50/139 45/49/140
f 106/116/141 105/115/142 107/117/143 108/118/144
f 37/40/145 38/41/146 48/52/147 47/51/148
f 38/41/149 39/42/150 49/53/151 48/52/152
f 39/42/153 40/43/154 50/54/155 49/53/156
f 40/43/157 31/44/158 41/55/159 50/54/160
f 41/45/161 42/46/162 52/57/163 51/56/164
f 42/46/165 43/47/166 53/58/167 52/57/168
f 43/47/169 44/48/170 54/59/171 53/58/172
f 44/48/173 45/49/174 55/60/175 54/59/176
f 45/49/177 46/50/178 56/61/179 55/60/180
f 108/118/181 107/117/182 109/119/183 110/120/184
f 47/51/185 48/52/186 58/63/187 57/62/188
f 48/52/189 49/53/190 59/64/191 58/63/192
f 49/53/193 50/54/194 60/65/195 59/64/196
f 50/54/197 41/55/198 51/66/199 60/65/200
f 51/56/201 52/57/202 62/68/203 61/67/204
f 52/57/205 53/58/206 63/69/207 62/68/208
f 53/58/209 54/59/210 64/70/211 63/69/212
f 54/59/213 55/60/214 65/71/215 64/70/216
f 55/60/217 56/61/218 66/72/219 65/71/220
f 110/120/221 109/119/222 111/121/223 112/122/224
f 57/62/225 58/63/226 68/74/227 67/73/228
f 58/63/229 59/64/230 69/75/231 68/74/232
f 59/64/233 60/65/234 70/76/235 69/75/236
f 60/65/237 51/66/238 61/77/239 70/76/240
f 61/67/241 62/68/242 72/79/243 71/78/244
f 62/68/245 63/69/246 73/80/247 72/79/248
f 63/69/249 64/70/250 74/81/251 73/80/252
f 64/70/253 65/71/254 75/82/255 74/81/256
f 65/71/257 66/72/258 76/83/259 75/82/260
f 112/122/261 111/121/262 113/123/263 114/124/264
f 67/73/265 68/74/266 78/85/267 77/84/268
f 68/74/269 69/75/270 79/86/271 78/85/272
f 69/75/273 70/76/274 80/87/275 79/86/276
f 70/76/277 61/77/278 71/88/279 80/87/280
s 1
f 91/101/281 92/102/282 82/90/283 81/89/284
s 2
f 92/102/285 93/103/286 83/91/287 82/90/288
s 3
f 93/103/289 94/104/290 84/92/291 83/91/292
s 4
f 94/104/293 95/105/294 85/93/295 84/92/296
s 5
f 95/105/297 96/106/298 86/94/299 85/93/300
s 6
f 96/106/301 97/107/302 87/95/303 86/94/304
s 7
f 97/107/305 98/108/306 88/96/307 87/95/308
s 8
f 98/108/309 99/109/310 89/97/311 88/96/312
s 9
f 99/109/313 100/110/314 90/98/315 89/97/316
s 10
f 100/110/317 91/100/318 81/99/319 90/98/320
s 1
f 71/78/321 72/79/322 92/102/282 91/101/281
s 2
f 72/79/323 73/80/324 93/103/286 92/102/285
s 3
f 73/80/325 74/81/326 94/104/290 93/103/289
s 4
f 74/81/327 75/82/328 95/105/294 94/104/293
s 5
f 75/82/329 76/83/330 96/106/298 95/105/297
s 6
f 76/83/331 77/84/332 97/107/302 96/106/301
s 7
f 77/84/333 78/85/334 98/108/306 97/107/305
s 8
f 78/85/335 79/86/336 99/109/310 98/108/309
s 9
f 79/86/337 80/87/338 100/110/314 99/109/313
s 10
f 80/87/339 71/88/340 91/100/318 100/110/317
s 11
f 5/5/341 10/10/342 9/9/343 6/6/344
f 4/4/345 1/11/346 10/10/342 5/5/341
f 6/6/344 9/9/343 8/8/347 7/7/348
f 2/2/349 1/11/346 4/4/345 3/3/350
s 12
f 90/98/351 85/93/352 86/94/353 89/97/354
f 81/89/355 84/92/356 85/93/352 90/98/351
f 89/97/354 86/94/353 87/95/357 88/96/358
f 82/90/359 83/91/360 84/92/356 81/89/355
s off
f 16/17/361 17/18/362 102/112/363 101/111/364
f 17/18/365 27/29/366 103/113/367 102/112/368
f 26/28/369 16/17/370 101/111/371 104/114/372
f 27/29/373 37/40/374 105/115/375 103/113/376
f 36/39/377 26/28/378 104/114/379 106/116/380
f 37/40/381 47/51/382 107/117/383 105/115/384
f 46/50/385 36/39/386 106/116/387 108/118/388
f 47/51/389 57/62/390 109/119/391 107/117/392
f 56/61/393 46/50/394 108/118/395 110/120/396
f 57/62/397 67/73/398 111/121/399 109/119/400
f 66/72/401 56/61/402 110/120/403 112/122/404
f 67/73/405 77/84/406 113/123/407 111/121/408
f 77/84/409 76/83/410 114/124/411 113/123/412
f 76/83/413 66/72/414 112/122/415 114/124/416
