# This file uses centimeters as units for non-parametric coordinates.

mtllib wall_light.mtl
g default
v -0.224460 -1.092322 0.000000
v -0.181592 -1.092322 0.181636
v -0.069362 -1.092322 0.293893
v 0.069362 -1.092322 0.293893
v 0.181592 -1.092322 0.181636
v 0.224460 -1.092322 0.000000
v -0.828781 -0.476033 0.000000
v -0.670498 -0.476033 0.345492
v -0.256107 -0.476033 0.559017
v 0.256108 -0.476033 0.559017
v 0.670498 -0.476033 0.345491
v 0.828781 -0.476033 0.000000
v -0.997375 -0.274982 0.000000
v -0.806893 -0.274982 0.475528
v -0.308206 -0.274982 0.769421
v 0.308206 -0.274982 0.769421
v 0.806893 -0.274982 0.475528
v 0.997375 -0.274982 0.000000
v -1.093715 -0.066847 0.000000
v -0.884834 -0.066847 0.559017
v -0.337977 -0.066847 0.904509
v 0.337977 -0.066847 0.904509
v 0.884834 -0.066847 0.559017
v 1.093715 -0.066847 0.000000
v -1.365944 0.242170 0.000000
v -1.105072 0.242170 0.781182
v -0.422100 0.242170 1.263979
v 0.422100 0.242170 1.263979
v 1.105072 0.242170 0.781182
v 1.365944 0.242170 0.000000
v -1.608670 0.500735 0.000000
v -1.301441 0.500735 0.724253
v -0.497106 0.500735 1.171866
v 0.497107 0.500735 1.171866
v 1.301441 0.500735 0.724253
v 1.608670 0.500735 0.000000
v 0.000000 -1.224400 0.000000
v -0.698649 -0.568134 0.000000
v -0.565219 -0.568134 0.301910
v -0.215894 -0.568134 0.488500
v 0.215894 -0.568134 0.488500
v 0.565219 -0.568134 0.301910
v 0.698649 -0.568134 0.000000
v -0.423155 -0.813180 0.000000
v -0.342339 -0.813180 0.227527
v -0.130762 -0.813180 0.368146
v 0.130762 -0.813180 0.368146
v 0.342339 -0.813180 0.227527
v 0.423155 -0.813180 0.000000
v 0.594364 -0.687506 0.000000
v 0.480851 -0.687506 0.263805
v 0.183669 -0.687506 0.426845
v -0.183669 -0.687506 0.426845
v -0.480851 -0.687506 0.263805
v -0.594364 -0.687506 0.000000
v -0.279557 -0.971432 0.000000
v -0.226166 -0.971432 0.198363
v -0.086388 -0.971432 0.320959
v 0.086388 -0.971432 0.320959
v 0.226166 -0.971432 0.198363
v 0.279557 -0.971432 0.000000
v 0.405374 -0.925134 0.000000
v 0.327955 -0.925134 0.216348
v 0.125268 -0.925134 0.350058
v -0.125268 -0.925134 0.350058
v -0.327955 -0.925134 0.216348
v -0.405374 -0.925134 0.000000
v -0.568474 -0.769929 0.000000
v -0.459905 -0.769929 0.250205
v -0.175668 -0.769929 0.404840
v 0.175668 -0.769929 0.404840
v 0.459905 -0.769929 0.250205
v 0.568474 -0.769929 0.000000
v 0.703054 -0.664131 0.000000
v 0.568782 -0.664131 0.277708
v 0.217256 -0.664131 0.449341
v -0.217255 -0.664131 0.449341
v -0.568782 -0.664131 0.277708
v -0.703054 -0.664131 0.000000
v -1.552921 0.362574 0.000000
v -1.256339 0.362574 0.754672
v -0.479879 0.362574 1.221086
v 0.479879 0.362574 1.221086
v 1.256339 0.362574 0.754672
v 1.552921 0.362574 0.000000
v -1.907317 0.652091 0.000000
v -1.543052 0.652091 0.724253
v -0.589393 0.652091 1.171866
v 0.589394 0.652091 1.171866
v 1.543052 0.652091 0.724253
v 1.907317 0.652091 0.000000
v -1.975090 0.783267 0.000000
v -1.597881 0.783267 0.724253
v -0.610336 0.783267 1.171866
v 0.610337 0.783267 1.171866
v 1.597881 0.783267 0.724253
v 1.975090 0.783267 0.000000
v -1.764043 0.540225 0.000000
v -1.427141 0.540225 0.724253
v -0.545119 0.540225 1.171866
v 0.545120 0.540225 1.171866
v 1.427141 0.540225 0.724253
v 1.764043 0.540225 0.000000
v 1.794451 0.595128 0.000000
v 1.451741 0.595128 0.774230
v 0.554516 0.595128 1.252730
v -0.554515 0.595128 1.252730
v -1.451741 0.595128 0.774230
v -1.794451 0.595128 0.000000
vt 0.400000 0.100000
vt 0.500000 0.100000
vt 0.600000 0.100000
vt 0.700000 0.100000
vt 0.800000 0.100000
vt 0.900000 0.100000
vt 0.400000 0.200000
vt 0.500000 0.200000
vt 0.600000 0.200000
vt 0.700000 0.200000
vt 0.800000 0.200000
vt 0.900000 0.200000
vt 0.400000 0.300000
vt 0.500000 0.300000
vt 0.600000 0.300000
vt 0.700000 0.300000
vt 0.800000 0.300000
vt 0.900000 0.300000
vt 0.400000 0.400000
vt 0.500000 0.400000
vt 0.600000 0.400000
vt 0.700000 0.400000
vt 0.800000 0.400000
vt 0.900000 0.400000
vt 0.400000 0.500000
vt 0.500000 0.500000
vt 0.600000 0.500000
vt 0.700000 0.500000
vt 0.800000 0.500000
vt 0.900000 0.500000
vt 0.400000 0.600000
vt 0.500000 0.600000
vt 0.600000 0.600000
vt 0.700000 0.600000
vt 0.800000 0.600000
vt 0.900000 0.600000
vt 0.450000 0.000000
vt 0.550000 0.000000
vt 0.650000 0.000000
vt 0.750000 0.000000
vt 0.850000 0.000000
vt 0.400000 0.173402
vt 0.500000 0.173402
vt 0.600000 0.173402
vt 0.700000 0.173402
vt 0.800000 0.173402
vt 0.900000 0.173402
vt 0.400000 0.128007
vt 0.500000 0.128007
vt 0.600000 0.128007
vt 0.700000 0.128007
vt 0.800000 0.128007
vt 0.900000 0.128007
vt 0.900000 0.150147
vt 0.800000 0.150147
vt 0.700000 0.150147
vt 0.600000 0.150147
vt 0.500000 0.150147
vt 0.400000 0.150147
vt 0.400000 0.110209
vt 0.500000 0.110209
vt 0.600000 0.110209
vt 0.700000 0.110209
vt 0.800000 0.110209
vt 0.900000 0.110209
vt 0.900000 0.121185
vt 0.800000 0.121185
vt 0.700000 0.121185
vt 0.600000 0.121185
vt 0.500000 0.121185
vt 0.400000 0.121185
vt 0.400000 0.141847
vt 0.500000 0.141847
vt 0.600000 0.141847
vt 0.700000 0.141847
vt 0.800000 0.141847
vt 0.900000 0.141847
vt 0.900000 0.158632
vt 0.800000 0.158632
vt 0.700000 0.158632
vt 0.600000 0.158632
vt 0.500000 0.158632
vt 0.400000 0.158632
vt 0.400000 0.546566
vt 0.500000 0.546566
vt 0.600000 0.546566
vt 0.700000 0.546566
vt 0.800000 0.546566
vt 0.900000 0.546566
vt 0.000000 0.000000
vt 1.000000 0.000000
vt 1.000000 1.000000
vt 0.000000 1.000000
vt 0.000000 0.000000
vt 1.000000 0.000000
vt 1.000000 1.000000
vt 0.000000 1.000000
vt 0.000000 0.000000
vt 1.000000 0.000000
vt 1.000000 1.000000
vt 0.000000 1.000000
vt 0.000000 0.000000
vt 1.000000 0.000000
vt 1.000000 1.000000
vt 0.000000 1.000000
vt 0.000000 0.000000
vt 1.000000 0.000000
vt 1.000000 1.000000
vt 0.000000 1.000000
vt 0.000000 0.000000
vt 1.000000 0.000000
vt 1.000000 1.000000
vt 0.000000 1.000000
vt 0.000000 0.000000
vt 1.000000 0.000000
vt 1.000000 1.000000
vt 0.000000 1.000000
vt 0.000000 0.000000
vt 1.000000 0.000000
vt 1.000000 1.000000
vt 0.000000 1.000000
vt 0.000000 0.000000
vt 1.000000 0.000000
vt 1.000000 1.000000
vt 0.000000 1.000000
vt 0.000000 0.000000
vt 1.000000 0.000000
vt 1.000000 1.000000
vt 0.000000 1.000000
vt 0.000000 0.493834
vt 1.000000 0.493834
vt 0.000000 0.493834
vt 1.000000 0.493834
vt 0.000000 0.493834
vt 1.000000 0.493834
vt 0.000000 0.493834
vt 1.000000 0.493834
vt 0.000000 0.493834
vt 1.000000 0.493834
vt 1.000000 0.585046
vt 1.000000 0.585046
vt 0.000000 0.585046
vt 1.000000 0.585046
vt 0.000000 0.585046
vt 1.000000 0.585046
vt 0.000000 0.585046
vt 1.000000 0.585046
vt 0.000000 0.585046
vt 0.000000 0.585046
vn -0.740111 -0.581873 0.337135
vn -0.743106 -0.577211 0.338558
vn -0.566118 -0.783863 0.255088
vn -0.566118 -0.783863 0.255088
vn -0.388067 -0.537361 0.748764
vn -0.390036 -0.530086 0.752915
vn -0.342338 -0.675152 0.653433
vn -0.342338 -0.675152 0.653433
vn 0.000000 -0.518986 0.854782
vn 0.000000 -0.518986 0.854782
vn 0.000000 -0.607925 0.793995
vn 0.000000 -0.607925 0.793995
vn 0.390036 -0.530086 0.752915
vn 0.388067 -0.537362 0.748763
vn 0.342338 -0.675152 0.653432
vn 0.342338 -0.675152 0.653432
vn 0.743106 -0.577211 0.338558
vn 0.740111 -0.581873 0.337136
vn 0.566118 -0.783863 0.255088
vn 0.566118 -0.783863 0.255088
vn -0.710128 -0.636177 0.301659
vn -0.710128 -0.636177 0.301659
vn -0.710128 -0.636177 0.301659
vn -0.710128 -0.636177 0.301659
vn -0.349061 -0.695429 0.628121
vn -0.349061 -0.695429 0.628121
vn -0.349061 -0.695429 0.628121
vn -0.349061 -0.695429 0.628121
vn 0.000000 -0.722993 0.690855
vn 0.000000 -0.722993 0.690855
vn 0.000000 -0.722993 0.690855
vn 0.000000 -0.722993 0.690855
vn 0.349061 -0.695429 0.628121
vn 0.349061 -0.695429 0.628121
vn 0.349061 -0.695429 0.628121
vn 0.349061 -0.695429 0.628121
vn 0.710128 -0.636176 0.301659
vn 0.710128 -0.636176 0.301659
vn 0.710128 -0.636176 0.301659
vn 0.710128 -0.636176 0.301659
vn -0.846629 -0.420008 0.326822
vn -0.846629 -0.420008 0.326822
vn -0.846629 -0.420008 0.326822
vn -0.846629 -0.420008 0.326822
vn -0.450718 -0.503627 0.737030
vn -0.450718 -0.503627 0.737030
vn -0.450718 -0.503627 0.737030
vn -0.450717 -0.503627 0.737030
vn 0.000000 -0.544421 0.838812
vn 0.000000 -0.544421 0.838812
vn 0.000000 -0.544421 0.838812
vn 0.000000 -0.544421 0.838812
vn 0.450718 -0.503627 0.737031
vn 0.450718 -0.503627 0.737031
vn 0.450718 -0.503627 0.737030
vn 0.450718 -0.503627 0.737030
vn 0.846629 -0.420008 0.326822
vn 0.846629 -0.420008 0.326822
vn 0.846629 -0.420008 0.326822
vn 0.846629 -0.420008 0.326822
vn -0.711665 -0.656742 0.249446
vn -0.711665 -0.656742 0.249446
vn -0.711665 -0.656742 0.249446
vn -0.711665 -0.656742 0.249446
vn -0.384162 -0.725992 0.570398
vn -0.384162 -0.725992 0.570398
vn -0.384162 -0.725992 0.570398
vn -0.384162 -0.725992 0.570398
vn 0.000000 -0.758318 0.651884
vn 0.000000 -0.758318 0.651885
vn 0.000000 -0.758318 0.651884
vn 0.000000 -0.758318 0.651884
vn 0.384163 -0.725992 0.570398
vn 0.384163 -0.725992 0.570398
vn 0.384163 -0.725992 0.570398
vn 0.384163 -0.725992 0.570398
vn 0.711665 -0.656742 0.249446
vn 0.711665 -0.656742 0.249445
vn 0.711665 -0.656742 0.249446
vn 0.711665 -0.656742 0.249446
vn -0.767713 -0.566482 0.299524
vn -0.703875 -0.657573 0.268622
vn -0.887667 -0.284083 0.362414
vn -0.887667 -0.284083 0.362414
vn -0.510898 0.047563 0.858325
vn -0.524922 -0.074857 0.847852
vn -0.495950 0.135338 0.857739
vn -0.495950 0.135338 0.857739
vn 0.000000 0.335588 0.942009
vn 0.000000 0.335588 0.942009
vn 0.000000 0.335588 0.942009
vn 0.000000 0.335588 0.942009
vn 0.524922 -0.074857 0.847852
vn 0.510898 0.047563 0.858324
vn 0.495951 0.135338 0.857739
vn 0.495951 0.135338 0.857739
vn 0.703875 -0.657573 0.268622
vn 0.767713 -0.566482 0.299523
vn 0.887667 -0.284082 0.362414
vn 0.887667 -0.284082 0.362414
vn -0.503547 -0.855755 0.118843
vn -0.503547 -0.855755 0.118843
vn -0.503547 -0.855755 0.118843
vn -0.323410 -0.889305 0.323332
vn -0.323410 -0.889305 0.323332
vn -0.323410 -0.889305 0.323332
vn 0.000000 -0.912124 0.409915
vn 0.000000 -0.912124 0.409915
vn 0.000000 -0.912124 0.409915
vn 0.323410 -0.889304 0.323332
vn 0.323410 -0.889304 0.323332
vn 0.323410 -0.889305 0.323332
vn 0.503547 -0.855755 0.118843
vn 0.503547 -0.855755 0.118843
vn 0.503547 -0.855755 0.118843
vn -0.666175 -0.690508 0.281799
vn -0.589624 -0.768846 0.247427
vn -0.630045 -0.726029 0.275544
vn -0.543923 -0.804377 0.239007
vn -0.435646 -0.439303 0.785637
vn -0.398682 -0.583075 0.707867
vn -0.410880 -0.503240 0.760215
vn -0.362805 -0.640085 0.677247
vn 0.000000 -0.355522 0.934668
vn 0.000000 -0.355522 0.934668
vn 0.000000 -0.448188 0.893939
vn 0.000000 -0.448188 0.893939
vn 0.398683 -0.583075 0.707867
vn 0.435646 -0.439303 0.785637
vn 0.362805 -0.640085 0.677247
vn 0.410880 -0.503240 0.760215
vn 0.589624 -0.768846 0.247427
vn 0.666175 -0.690507 0.281799
vn 0.543924 -0.804377 0.239007
vn 0.630045 -0.726029 0.275545
vn -0.647674 -0.740878 0.177813
vn -0.683548 -0.705965 0.185404
vn -0.737515 -0.625708 0.254090
vn -0.787412 -0.552534 0.273293
vn -0.521042 -0.593716 0.613202
vn -0.559473 -0.524863 0.641489
vn -0.508163 -0.439605 0.740620
vn -0.529886 -0.321616 0.784719
vn 0.000000 -0.373799 0.927510
vn 0.000000 -0.373799 0.927510
vn 0.000000 -0.233155 0.972440
vn 0.000000 -0.233155 0.972440
vn 0.559473 -0.524864 0.641489
vn 0.521042 -0.593716 0.613202
vn 0.529886 -0.321617 0.784719
vn 0.508163 -0.439605 0.740620
vn 0.683549 -0.705965 0.185404
vn 0.647674 -0.740878 0.177813
vn 0.787412 -0.552534 0.273293
vn 0.737515 -0.625708 0.254090
vn 0.787495 -0.497910 0.363232
vn 0.723690 -0.604107 0.333657
vn 0.418015 -0.396970 0.817116
vn 0.388522 -0.522955 0.758663
vn 0.000000 -0.420430 0.907325
vn 0.000000 -0.420430 0.907325
vn -0.388521 -0.522955 0.758663
vn -0.418015 -0.396970 0.817116
vn -0.723690 -0.604108 0.333656
vn -0.787495 -0.497911 0.363231
vn -0.894834 -0.384567 0.226673
vn -0.894834 -0.384567 0.226673
vn -0.651890 -0.292788 0.699510
vn -0.651890 -0.292788 0.699510
vn 0.000000 -0.218480 0.975842
vn 0.000000 -0.218480 0.975842
vn 0.651890 -0.292788 0.699510
vn 0.651890 -0.292788 0.699510
vn 0.894834 -0.384566 0.226673
vn 0.894834 -0.384566 0.226673
vn 0.628490 -0.742215 0.232631
vn 0.684581 -0.684093 0.251726
vn 0.434411 -0.585526 0.684432
vn 0.473748 -0.482404 0.736784
vn 0.000000 -0.402497 0.915421
vn 0.000000 -0.402497 0.915421
vn -0.473747 -0.482403 0.736784
vn -0.434411 -0.585526 0.684432
vn -0.684581 -0.684093 0.251726
vn -0.628491 -0.742215 0.232631
vn -0.577922 -0.788673 0.209763
vn -0.577922 -0.788673 0.209763
vn -0.531150 -0.225728 0.816656
vn -0.531150 -0.225728 0.816656
vn 0.000000 0.335588 0.942009
vn 0.000000 0.335588 0.942009
vn 0.531151 -0.225728 0.816655
vn 0.531151 -0.225728 0.816655
vn 0.577922 -0.788674 0.209763
vn 0.577922 -0.788674 0.209763
vn -0.517204 -0.823494 0.233149
vn -0.463133 -0.861442 0.208390
vn -0.646627 -0.702038 0.298356
vn -0.605595 -0.744422 0.281232
vn -0.301340 -0.759348 0.576702
vn -0.309390 -0.746559 0.589006
vn -0.412076 -0.427130 0.804831
vn -0.450683 -0.092398 0.887890
vn 0.000000 -0.754403 0.656412
vn 0.000000 -0.754403 0.656412
vn 0.000000 0.208458 0.978031
vn 0.000000 0.208458 0.978031
vn 0.309390 -0.746559 0.589005
vn 0.301340 -0.759349 0.576701
vn 0.450683 -0.092397 0.887890
vn 0.412076 -0.427130 0.804831
vn 0.463133 -0.861441 0.208390
vn 0.517204 -0.823493 0.233149
vn 0.605595 -0.744422 0.281232
vn 0.646627 -0.702038 0.298356
vn -0.821879 -0.384079 0.420711
vn -0.821879 -0.384079 0.420711
vn -0.821879 -0.384079 0.420711
vn -0.821879 -0.384079 0.420711
vn -0.415753 -0.120077 0.901516
vn -0.415753 -0.120077 0.901516
vn -0.415753 -0.120077 0.901516
vn -0.415753 -0.120077 0.901516
vn 0.000000 0.000000 1.000000
vn 0.000000 0.000000 1.000000
vn 0.000000 0.000000 1.000000
vn 0.000000 0.000000 1.000000
vn 0.415753 -0.120077 0.901516
vn 0.415753 -0.120077 0.901516
vn 0.415753 -0.120077 0.901516
vn 0.415753 -0.120077 0.901516
vn 0.821879 -0.384079 0.420711
vn 0.821879 -0.384079 0.420711
vn 0.821879 -0.384079 0.420711
vn 0.821879 -0.384079 0.420711
vn -0.268586 -0.955823 0.119437
vn -0.268586 -0.955822 0.119437
vn -0.326411 -0.717910 0.614867
vn -0.326411 -0.717910 0.614867
vn 0.000000 0.000002 1.000000
vn 0.000000 0.000002 1.000000
vn 0.326410 -0.717910 0.614867
vn 0.326410 -0.717910 0.614867
vn 0.268586 -0.955822 0.119436
vn 0.268586 -0.955823 0.119436
vn 0.517395 -0.820192 0.244104
vn 0.517396 -0.820192 0.244104
vn 0.395141 0.469281 0.789708
vn 0.395141 0.469281 0.789708
vn 0.000000 0.817526 0.575892
vn 0.000000 0.817526 0.575892
vn -0.395141 0.469279 0.789709
vn -0.395141 0.469279 0.789709
vn -0.517396 -0.820192 0.244104
vn -0.517396 -0.820192 0.244104
s 1
g pSphere1
usemtl initialShadingGroup
f 38/42/1 39/43/2 8/8/3 7/7/4
s 2
f 39/43/5 40/44/6 9/9/7 8/8/8
s 3
f 40/44/9 41/45/10 10/10/11 9/9/12
s 4
f 41/45/13 42/46/14 11/11/15 10/10/16
s 5
f 42/46/17 43/47/18 12/12/19 11/11/20
s off
f 7/7/21 8/8/22 14/14/23 13/13/24
f 8/8/25 9/9/26 15/15/27 14/14/28
f 9/9/29 10/10/30 16/16/31 15/15/32
f 10/10/33 11/11/34 17/17/35 16/16/36
f 11/11/37 12/12/38 18/18/39 17/17/40
f 13/13/41 14/14/42 20/20/43 19/19/44
f 14/14/45 15/15/46 21/21/47 20/20/48
f 15/15/49 16/16/50 22/22/51 21/21/52
f 16/16/53 17/17/54 23/23/55 22/22/56
f 17/17/57 18/18/58 24/24/59 23/23/60
f 19/19/61 20/20/62 26/26/63 25/25/64
f 20/20/65 21/21/66 27/27/67 26/26/68
f 21/21/69 22/22/70 28/28/71 27/27/72
f 22/22/73 23/23/74 29/29/75 28/28/76
f 23/23/77 24/24/78 30/30/79 29/29/80
s 6
f 80/84/81 81/85/82 32/32/83 31/31/84
s 7
f 81/85/85 82/86/86 33/33/87 32/32/88
s 8
f 82/86/89 83/87/90 34/34/91 33/33/92
s 9
f 83/87/93 84/88/94 35/35/95 34/34/96
s 10
f 84/88/97 85/89/98 36/36/99 35/35/100
s off
f 2/2/101 1/1/102 37/37/103
f 3/3/104 2/2/105 37/38/106
f 4/4/107 3/3/108 37/39/109
f 5/5/110 4/4/111 37/40/112
f 6/6/113 5/5/114 37/41/115
s 1
f 68/72/116 69/73/117 54/58/118 55/59/119
s 2
f 69/73/120 70/74/121 53/57/122 54/58/123
s 3
f 70/74/124 71/75/125 52/56/126 53/57/127
s 4
f 71/75/128 72/76/129 51/55/130 52/56/131
s 5
f 72/76/132 73/77/133 50/54/134 51/55/135
s 1
f 56/60/136 57/61/137 66/70/138 67/71/139
s 2
f 57/61/140 58/62/141 65/69/142 66/70/143
s 3
f 58/62/144 59/63/145 64/68/146 65/69/147
s 4
f 59/63/148 60/64/149 63/67/150 64/68/151
s 5
f 60/64/152 61/65/153 62/66/154 63/67/155
f 51/55/135 50/54/134 74/78/156 75/79/157
s 4
f 52/56/131 51/55/130 75/79/158 76/80/159
s 3
f 53/57/127 52/56/126 76/80/160 77/81/161
s 2
f 54/58/123 53/57/122 77/81/162 78/82/163
s 1
f 55/59/119 54/58/118 78/82/164 79/83/165
f 1/1/166 2/2/167 57/61/137 56/60/136
s 2
f 2/2/168 3/3/169 58/62/141 57/61/140
s 3
f 3/3/170 4/4/171 59/63/145 58/62/144
s 4
f 4/4/172 5/5/173 60/64/149 59/63/148
s 5
f 5/5/174 6/6/175 61/65/153 60/64/152
f 63/67/155 62/66/154 49/53/176 48/52/177
s 4
f 64/68/151 63/67/150 48/52/178 47/51/179
s 3
f 65/69/147 64/68/146 47/51/180 46/50/181
s 2
f 66/70/143 65/69/142 46/50/182 45/49/183
s 1
f 67/71/139 66/70/138 45/49/184 44/48/185
f 44/48/185 45/49/184 69/73/117 68/72/116
s 2
f 45/49/183 46/50/182 70/74/121 69/73/120
s 3
f 46/50/181 47/51/180 71/75/125 70/74/124
s 4
f 47/51/179 48/52/178 72/76/129 71/75/128
s 5
f 48/52/177 49/53/176 73/77/133 72/76/132
f 75/79/157 74/78/156 43/47/18 42/46/17
s 4
f 76/80/159 75/79/158 42/46/14 41/45/13
s 3
f 77/81/161 76/80/160 41/45/10 40/44/9
s 2
f 78/82/163 77/81/162 40/44/6 39/43/5
s 1
f 79/83/165 78/82/164 39/43/2 38/42/1
s 6
f 25/25/186 26/26/187 81/85/82 80/84/81
s 7
f 26/26/188 27/27/189 82/86/86 81/85/85
s 8
f 27/27/190 28/28/191 83/87/90 82/86/89
s 9
f 28/28/192 29/29/193 84/88/94 83/87/93
s 10
f 29/29/194 30/30/195 85/89/98 84/88/97
s 21
f 98/130/196 99/131/197 108/147/198 109/149/199
s 22
f 99/132/200 100/133/201 107/145/202 108/148/203
s 23
f 100/134/204 101/135/205 106/143/206 107/146/207
s 24
f 101/136/208 102/137/209 105/141/210 106/144/211
s 25
f 102/138/212 103/139/213 104/140/214 105/142/215
s off
f 86/110/216 87/111/217 93/112/218 92/113/219
f 87/114/220 88/115/221 94/116/222 93/117/223
f 88/118/224 89/119/225 95/120/226 94/121/227
f 89/122/228 90/123/229 96/124/230 95/125/231
f 90/126/232 91/127/233 97/128/234 96/129/235
s 21
f 31/90/236 32/91/237 99/131/197 98/130/196
s 22
f 32/94/238 33/95/239 100/133/201 99/132/200
s 23
f 33/98/240 34/99/241 101/135/205 100/134/204
s 24
f 34/102/242 35/103/243 102/137/209 101/136/208
s 25
f 35/106/244 36/107/245 103/139/213 102/138/212
f 105/142/215 104/140/214 91/108/246 90/109/247
s 24
f 106/144/211 105/141/210 90/104/248 89/105/249
s 23
f 107/146/207 106/143/206 89/100/250 88/101/251
s 22
f 108/148/203 107/145/202 88/96/252 87/97/253
s 21
f 109/149/199 108/147/198 87/92/254 86/93/255
